<mxfile host="65bd71144e">
    <diagram id="3V3X2Iz-UQnHf7yE3IGk" name="第 1 页">
        <mxGraphModel dx="889" dy="418" grid="1" gridSize="10" guides="1" tooltips="1" connect="1" arrows="1" fold="1" page="1" pageScale="1" pageWidth="850" pageHeight="1100" math="0" shadow="0">
            <root>
                <mxCell id="0"/>
                <mxCell id="1" parent="0"/>
                <mxCell id="2" value="让用户输入父亲的身高" style="rounded=1;whiteSpace=wrap;html=1;" parent="1" vertex="1">
                    <mxGeometry x="90" y="60" width="290" height="60" as="geometry"/>
                </mxCell>
                <mxCell id="3" value="把父亲的身高转换成浮点数类型" style="rounded=1;whiteSpace=wrap;html=1;" parent="1" vertex="1">
                    <mxGeometry x="90" y="130" width="290" height="60" as="geometry"/>
                </mxCell>
                <mxCell id="4" value="让用户输入母亲的身高" style="rounded=1;whiteSpace=wrap;html=1;" parent="1" vertex="1">
                    <mxGeometry x="90" y="200" width="290" height="60" as="geometry"/>
                </mxCell>
                <mxCell id="5" value="把母亲的身高转换成浮点数类型" style="rounded=1;whiteSpace=wrap;html=1;" parent="1" vertex="1">
                    <mxGeometry x="90" y="270" width="290" height="60" as="geometry"/>
                </mxCell>
                <mxCell id="6" value="计算父亲身高和母亲身高的和然后*0.54" style="rounded=1;whiteSpace=wrap;html=1;" parent="1" vertex="1">
                    <mxGeometry x="90" y="350" width="290" height="60" as="geometry"/>
                </mxCell>
            </root>
        </mxGraphModel>
    </diagram>
</mxfile>